<?xml version="1.0" encoding="UTF-8" standalone="no"?>
<!DOCTYPE svg PUBLIC "-//W3C//DTD SVG 1.1//EN" "http://www.w3.org/Graphics/SVG/1.1/DTD/svg11.dtd">
<!-- Created with Vectornator (http://vectornator.io/) -->
<svg height="100%" stroke-miterlimit="10" style="fill-rule:nonzero;clip-rule:evenodd;stroke-linecap:round;stroke-linejoin:round;" version="1.1" viewBox="0 0 896 896" width="100%" xml:space="preserve" xmlns="http://www.w3.org/2000/svg" xmlns:xlink="http://www.w3.org/1999/xlink">
<defs/>
<g id="derfel">
<path d="M441.754 696.081C469.021 703.629 496.526 706.42 524.196 704.498C596.986 699.441 657.745 669.343 705.624 614.161C736.793 578.239 756.771 536.557 764.175 489.608C776.764 409.776 757.405 338.209 704.768 276.525C668.989 234.597 623.726 207.427 570.201 194.095C541.81 187.023 513.013 185.363 483.989 188.188C417.976 194.613 362.755 222.897 317.62 271.212C306.33 283.297 296.396 296.471 287.969 310.708C285.505 314.871 282.551 316.184 277.049 314.294C288.303 293.28 302.521 274.889 319.082 258.327C365.928 211.479 422.502 184.33 488.517 179.96C644.695 169.623 756.603 283.172 773.166 409C792.756 557.829 692.651 680.976 563.107 707.091C428.494 734.227 319.282 657.92 277.668 577.423C282.407 575.712 285.441 576.789 288.274 581.304C324.565 639.148 375.665 677.327 441.754 696.081Z" fill="#CA3433" fill-rule="nonzero" opacity="1" stroke="none"/>
<path d="M182.533 478.984C155.354 474.385 138.547 450.755 142.016 420.764C143.915 404.342 150.207 389.923 163.717 379.519C176.174 369.926 190.173 367.754 205.277 371.32C206.854 371.693 208.41 372.516 210.713 371.701C210.713 363.954 210.667 356.017 210.726 348.082C210.786 339.924 214.816 334.979 222.707 333.197C230.382 331.464 238.334 337.134 239.39 344.961C240.419 352.59 240.076 360.254 240.182 367.905C240.599 397.873 239.858 427.851 240.933 457.815C241.022 460.297 240.819 462.808 240.533 465.28C239.617 473.221 236.255 477.493 230.468 478.27C222.477 479.344 218.425 476.969 214.863 469.146C214.668 468.716 214.358 468.338 213.658 467.241C205.556 476.954 195.188 480.603 182.533 478.984M170.4 429.067C171.331 434.89 173.014 440.353 177.105 444.881C185.047 453.671 198.704 453.933 205.031 445.39C213.48 433.981 211.832 420.873 211.429 407.974C211.411 407.387 210.925 406.745 210.51 406.253C201.135 395.151 182.472 394.155 175.072 408.074C171.696 414.424 170.246 421.096 170.4 429.067Z" fill="#CA3433" fill-rule="nonzero" opacity="1" stroke="none"/>
<path d="M535.439 387.454C554.616 364.56 595.642 365.571 612.531 385.556C620.826 395.372 624.156 406.836 624.013 419.265C623.91 428.315 617.47 433.272 607.344 434.384C590.899 436.189 574.441 435.464 557.978 435.308C550.863 435.241 550.086 436.628 553.467 443.031C556.286 448.371 560.602 452.016 566.454 453.068C577.389 455.034 587.886 455.232 596.415 445.824C601.616 440.088 610.104 440.301 615.277 445.263C620.377 450.155 620.354 457.41 614.992 463.637C607.78 472.012 598.068 475.839 587.583 477.826C568.142 481.511 550.4 478.078 535.851 463.859C525.468 453.712 521.557 440.664 521.897 426.569C522.239 412.382 525.359 398.816 535.439 387.454M566.071 396.457C556.465 399.727 552.469 404.357 552.01 412.747C552.122 412.866 552.217 413.065 552.347 413.092C565.827 415.926 579.357 415.037 592.876 413.514C596.19 413.14 596.118 410.406 595.468 408.135C593.84 402.442 590.809 397.877 584.571 396.321C578.665 394.848 572.774 394.846 566.071 396.457Z" fill="#CA3433" fill-rule="nonzero" opacity="1" stroke="none"/>
<path d="M320.569 435.653C311.124 435.565 302.138 435.377 293.151 435.298C287.999 435.252 287.254 436.427 289.33 441.286C293.859 451.881 302.307 454.386 314.539 454.208C321.646 454.105 327.6 451.44 332.662 446.087C338.184 440.246 346.722 440.194 351.961 445.193C356.852 449.859 356.945 457.524 351.663 463.704C344.495 472.089 334.672 475.892 324.204 477.806C302.988 481.684 284.002 477.503 269.542 460.381C260.733 449.952 257.91 437.338 258.746 423.923C259.883 405.657 266.083 390.004 281.718 378.959C297.979 367.472 327.08 367.658 342.57 379.537C356.914 390.537 361.591 405.509 360.136 422.8C359.61 429.038 352.705 433.427 344.444 434.369C336.648 435.257 328.834 435.235 320.569 435.653M328.622 400.886C322.408 392.501 300.241 393.97 293.253 401.543C291.289 403.673 290.072 406.169 289.061 408.839C287.95 411.774 288.256 413.426 291.939 413.907C302.394 415.274 312.854 414.857 323.306 414.341C336.633 413.682 333.256 409.683 328.622 400.886Z" fill="#CA3433" fill-rule="nonzero" opacity="1" stroke="none"/>
<path d="M518.613 360.821C514.555 363.646 510.592 363.789 506.414 362.226C504.393 361.47 502.323 360.817 500.233 360.279C492.343 358.247 488.448 362.164 489.992 370.173C490.521 372.916 491.747 373.861 494.333 373.695C495.825 373.599 497.33 373.667 498.828 373.701C508.232 373.91 513.417 379.109 513.389 388.285C513.362 397.061 508.057 402.188 498.85 402.333C492.164 402.438 492.092 402.477 492.206 409.037C492.525 427.35 492.168 445.651 491.328 463.946C490.978 471.572 485.661 476.909 477.92 477.286C469.775 477.683 463.813 472.958 462.551 465.484C461.927 461.784 462.605 458.188 462.619 454.544C462.681 439.058 462.63 423.571 462.762 408.085C462.794 404.364 462.053 402.4 457.623 402.105C451.634 401.706 447.979 396.58 447.674 389.707C447.324 381.843 450.529 375.975 456.527 374.854C460.256 374.157 460.972 372.279 461.026 369.038C461.102 364.555 461.253 360.033 461.916 355.609C463.833 342.82 472.029 334.061 485.011 332.095C495.318 330.533 505.62 331.436 515.064 336.708C524.544 342 526.226 352.388 518.613 360.821Z" fill="#CA3433" fill-rule="nonzero" opacity="1" stroke="none"/>
<path d="M639.945 442C639.873 411.044 639.793 380.588 639.757 350.132C639.754 347.818 639.773 345.437 640.285 343.202C641.901 336.156 647.781 331.569 654.64 331.715C661.64 331.864 667.078 336.488 668.535 343.681C668.928 345.62 669.13 347.632 669.133 349.611C669.186 386.724 669.203 423.838 669.194 460.951C669.194 463.101 669.135 465.298 668.708 467.393C667.011 475.712 661.077 479.987 652.421 479.311C645.403 478.763 639.989 472.798 639.828 464.966C639.674 457.481 639.892 449.989 639.945 442Z" fill="#CA3433" fill-rule="nonzero" opacity="1" stroke="none"/>
<path d="M407.307 379.008C413.816 376.395 419.929 373.741 426.19 371.497C434.835 368.399 442.405 371.554 445.148 379.077C448.126 387.247 444.547 393.899 435.494 397.309C427.557 400.299 419.726 403.574 411.75 406.454C407.022 408.161 405.041 410.934 405.243 416.149C405.817 430.951 405.925 445.771 406.215 460.584C406.288 464.327 405.617 467.888 403.418 471.006C399.861 476.051 393.697 478.411 388.082 476.941C381.712 475.273 377.274 469.802 376.825 462.657C376.574 458.674 376.721 454.665 376.718 450.668C376.703 429.016 376.61 407.363 376.725 385.711C376.785 374.5 386.487 367.691 396.472 371.54C399.227 372.602 401.407 374.271 402.795 376.902C403.69 378.599 404.592 380.243 407.307 379.008Z" fill="#CA3433" fill-rule="nonzero" opacity="1" stroke="none"/>
</g>
<g id="dimov">
<path d="M550.72 520.337C550.838 517.93 550.416 515.567 553.454 515.551C556.464 515.535 556.237 517.857 556.242 519.834C556.265 528.487 556.258 537.14 556.206 545.793C556.194 547.738 556.494 550.144 553.483 550.126C550.483 550.109 550.789 547.685 550.774 545.756C550.709 537.436 550.729 529.115 550.72 520.337Z" fill="#CA3433" fill-rule="nonzero" opacity="1" stroke="none"/>
<path d="M489.365 528.753C485.689 527.285 484.204 525.655 488.478 523.709C490.44 522.815 490.422 521.388 490.729 519.744C491.56 515.293 494.889 512.945 498.873 513.757C499.891 513.964 500.88 514.164 501.059 515.373C501.244 516.625 500.968 517.758 499.519 518.05C497.412 518.475 495.474 519.269 495.626 521.738C495.771 524.087 498.046 523.458 499.534 523.87C500.414 524.113 500.971 524.696 501.011 525.622C501.071 526.988 500.344 527.949 499.036 528.042C495.175 528.318 495.291 530.997 495.313 533.765C495.349 538.242 495.311 542.719 495.266 547.196C495.25 548.85 494.744 550.19 492.708 550.041C490.897 549.909 490.731 548.523 490.713 547.162C490.656 543.017 490.708 538.87 490.609 534.727C490.563 532.785 491.081 530.715 489.365 528.753Z" fill="#CA3433" fill-rule="nonzero" opacity="1" stroke="none"/>
<path d="M386.963 539.596C390.065 533.386 396.024 535.329 400.703 534.169C400.837 528.265 400.295 528.043 388.738 529.096C387.466 527.447 387.829 525.814 389.463 524.903C393.156 522.844 397.231 523.184 401.057 524.281C404.412 525.243 406.043 528.18 406.189 531.545C406.411 536.681 406.253 541.833 406.293 546.978C406.31 549.221 405.362 550.734 403.044 550.076C400.97 549.487 399.136 550.087 397.192 550.273C389.192 551.037 386.311 548.164 386.963 539.596M392.991 544.966C394.604 546.166 396.387 546.069 398.157 545.513C400.135 544.891 400.746 543.147 401.245 541.374C401.533 540.349 401.482 539.25 400.454 538.793C398.155 537.771 395.895 538.515 393.84 539.566C391.77 540.624 391.135 542.336 392.991 544.966Z" fill="#CA3433" fill-rule="nonzero" opacity="1" stroke="none"/>
<path d="M460.142 529.583C464.927 523.459 472.495 521.78 477.892 525.342C483.277 528.896 485.127 537.821 481.807 544.235C478.804 550.036 471.768 552.458 465.575 549.822C459.009 547.028 456.643 538.673 460.142 529.583M472.163 545.771C478.004 543.331 479.994 534.506 475.564 530.175C472.788 527.461 469.414 527.283 466.61 529.845C463.942 532.283 462.743 535.639 463.806 539.364C464.889 543.158 466.826 546.067 472.163 545.771Z" fill="#CA3433" fill-rule="nonzero" opacity="1" stroke="none"/>
<path d="M651.744 536.269C652.543 538.493 653.201 540.363 654.305 543.5C657.272 534.743 659.966 527.063 662.454 519.316C663.49 516.092 664.945 514.406 669.052 516.326C665.272 527.111 661.703 537.773 657.744 548.289C656.609 551.306 651.778 551.208 650.676 548.185C646.828 537.631 643.301 526.961 639.627 516.263C643.033 514.648 644.919 515.362 645.901 518.392C647.794 524.235 649.701 530.074 651.744 536.269Z" fill="#CA3433" fill-rule="nonzero" opacity="1" stroke="none"/>
<path d="M435.325 538.728C435.224 542.766 435.429 546.112 440.446 545.68C441.578 545.582 442.467 545.96 442.612 547.186C442.759 548.426 442.358 549.417 441.104 550.028C436.656 552.193 431.134 549.141 430.742 544.086C430.485 540.775 430.745 537.425 430.566 534.104C430.443 531.822 431.586 528.704 427.759 528.215C424.369 527.783 421.051 527.871 418.91 531.215C417.505 533.409 417.272 535.861 417.309 538.404C417.354 541.565 417.292 544.729 417.195 547.889C417.154 549.209 416.452 550.026 415.002 550.057C413.53 550.088 412.795 549.274 412.786 547.949C412.737 540.627 412.723 533.304 412.778 525.981C412.79 524.307 414.157 523.335 415.484 523.956C419.581 525.877 423.414 522.848 427.45 523.653C429.293 524.02 430.608 522.796 430.584 520.689C430.566 519.051 430.769 517.651 432.931 517.719C434.644 517.772 435.276 518.788 435.276 520.305C435.276 523.341 437.294 523.709 439.649 523.782C440.872 523.82 441.992 524.174 442.091 525.702C442.148 526.583 441.891 527.706 441.053 527.73C432.992 527.965 435.819 534.012 435.325 538.728Z" fill="#CA3433" fill-rule="nonzero" opacity="1" stroke="none"/>
<path d="M376.266 549.521C372.209 551.512 368.533 550.454 364.843 549.28C363.695 551.856 364.384 554.368 364.151 556.789C363.98 558.571 363.664 560.168 361.395 560.13C359.436 560.097 358.876 558.707 358.87 557.097C358.83 546.979 358.827 536.86 358.859 526.741C358.865 525.069 359.909 523.215 361.456 523.969C364.719 525.561 367.544 523.787 370.544 523.619C375.325 523.351 378.971 524.982 381.208 529.342C383.956 534.699 383.124 542.785 379.292 547.169C378.546 548.023 377.505 548.621 376.266 549.521M374.699 529.737C372.134 527.735 369.511 527.72 366.994 529.724C363.641 532.393 363.966 536.172 364.458 539.776C364.834 542.533 366.473 544.758 369.285 545.53C372.379 546.381 374.852 545.21 376.309 542.334C378.441 538.125 378.209 534.059 374.699 529.737Z" fill="#CA3433" fill-rule="nonzero" opacity="1" stroke="none"/>
<path d="M609.825 518.781C616.743 513.927 623.964 513.418 629.606 517.141C635.305 520.902 637.942 529.773 635.905 538.329C634.205 545.468 629.737 549.609 622.644 550.619C612.378 552.081 604.205 543.597 604.793 531.823C605.027 527.148 606.12 522.615 609.825 518.781M612.347 541.001C614.857 545.042 618.588 546.436 623.075 545.502C626.828 544.721 629.111 542.037 630.141 538.46C631.216 534.725 631.244 530.836 630.205 527.124C628.914 522.516 625.657 519.538 620.824 519.528C616.121 519.518 612.68 521.972 611.171 526.744C609.697 531.407 609.958 535.907 612.347 541.001Z" fill="#CA3433" fill-rule="nonzero" opacity="1" stroke="none"/>
<path d="M540.669 545.674C534.344 551.698 526.795 550.238 519.556 550.169C517.588 550.15 517.181 548.516 517.176 546.961C517.146 537.473 517.169 527.986 517.203 518.498C517.211 516.215 518.578 515.123 520.719 515.228C525.029 515.439 529.493 515.182 533.607 516.237C545.945 519.4 549.484 534.039 540.669 545.674M522.325 528.603C522.329 532.935 522.419 537.269 522.308 541.598C522.23 544.619 523.579 545.608 526.506 545.738C536.799 546.193 543.419 536.289 538.96 526.908C536.592 521.925 530.805 519.112 525.104 520.29C520.411 521.26 523.08 525.125 522.325 528.603Z" fill="#CA3433" fill-rule="nonzero" opacity="1" stroke="none"/>
<path d="M568.997 537.792C568.672 541.202 568.415 544.175 568.172 547.149C568.014 549.073 567.218 550.304 565.055 550.137C562.982 549.977 562.724 548.457 562.826 546.914C563.451 537.476 564.149 528.043 564.816 518.608C564.951 516.689 565.867 515.513 567.85 515.295C570.126 515.044 571.608 515.84 572.411 518.151C575.023 525.667 577.764 533.139 580.878 541.803C584.019 533.569 586.778 526.371 589.503 519.16C590.163 517.414 590.716 515.726 593.05 515.551C595.524 515.366 597.136 515.687 597.358 518.795C598.019 528.057 598.924 537.302 599.791 546.549C599.96 548.348 600.104 549.973 597.678 550.161C595.446 550.334 594.883 548.957 594.712 547.065C594.103 540.313 593.432 533.566 591.893 526.632C589.577 532.757 587.301 538.897 584.922 544.998C584.167 546.936 583.753 549.279 580.813 549.289C577.767 549.301 577.599 546.811 576.883 544.901C574.682 539.029 572.599 533.113 569.739 527.302C569.516 530.653 569.294 534.004 568.997 537.792Z" fill="#CA3433" fill-rule="nonzero" opacity="1" stroke="none"/>
</g>
</svg>
